<svg width="607" height="637" viewBox="0 0 607 637" fill="none" xmlns="http://www.w3.org/2000/svg">
<path d="M252.666 25.8929H74.1157C60.5567 25.8929 49.5649 36.8824 49.5649 50.4387V473.295C49.5649 486.852 60.5567 497.841 74.1157 497.841H252.666C266.225 497.841 277.217 486.852 277.217 473.295V50.4387C277.217 36.8824 266.225 25.8929 252.666 25.8929Z" fill="url(#paint0_linear_42_102)"/>
<path d="M113.174 274.207V246.004H123.57C125.505 246.004 127.177 246.302 128.587 246.896C129.998 247.493 131.086 248.34 131.851 249.44C132.617 250.538 133.001 251.829 133.001 253.312C133.001 254.662 132.704 255.848 132.114 256.867C131.522 257.887 130.656 258.72 129.614 259.271C131.065 259.826 132.194 260.707 133 261.912C133.805 263.117 134.208 264.54 134.208 266.183C134.208 267.824 133.779 269.24 132.919 270.432C132.06 271.624 130.85 272.551 129.292 273.213C127.735 273.874 125.894 274.206 123.772 274.206H113.174V274.207ZM118.977 250.888V257.364H122.926C124.243 257.364 125.256 257.093 125.968 256.549C126.68 256.006 127.036 255.205 127.036 254.146C127.036 253.086 126.679 252.28 125.968 251.723C125.256 251.167 124.242 250.889 122.926 250.889H118.976L118.977 250.888ZM118.977 269.32H123.49C124.994 269.32 126.157 269.002 126.976 268.367C127.795 267.731 128.204 266.817 128.204 265.626C128.204 264.434 127.795 263.52 126.976 262.886C126.156 262.25 124.994 261.932 123.49 261.932H118.977V269.32ZM137.795 274.207V244.573H143.437V274.207H137.795ZM158.185 274.801C156.601 274.801 155.137 274.524 153.793 273.968C152.482 273.433 151.29 272.643 150.287 271.644C149.286 270.64 148.498 269.444 147.97 268.128C147.419 266.778 147.144 265.308 147.144 263.719C147.144 262.13 147.425 260.668 147.99 259.33C148.539 258.016 149.34 256.822 150.347 255.815C151.361 254.805 152.566 254.008 153.893 253.471C155.25 252.914 156.735 252.637 158.346 252.637C159.931 252.637 161.396 252.916 162.738 253.471C164.05 254.006 165.241 254.796 166.245 255.795C167.242 256.794 168.03 257.983 168.561 259.291C169.113 260.627 169.387 262.091 169.387 263.68C169.387 265.269 169.106 266.738 168.541 268.088C167.996 269.41 167.195 270.612 166.184 271.624C165.171 272.634 163.965 273.431 162.638 273.967C161.281 274.524 159.797 274.801 158.185 274.801V274.801ZM158.266 269.796C159.287 269.796 160.2 269.532 161.006 269.002C161.812 268.473 162.449 267.751 162.92 266.837C163.39 265.924 163.626 264.885 163.626 263.719C163.626 262.554 163.39 261.514 162.92 260.601C162.449 259.688 161.812 258.966 161.006 258.436C160.2 257.906 159.287 257.642 158.266 257.642C157.245 257.642 156.332 257.906 155.526 258.436C154.719 258.966 154.082 259.688 153.611 260.601C153.142 261.516 152.906 262.553 152.906 263.719C152.906 264.885 153.141 265.924 153.611 266.837C154.082 267.751 154.719 268.473 155.526 269.002C156.332 269.532 157.245 269.796 158.266 269.796ZM181.839 273.61C180.54 273.619 179.255 273.348 178.071 272.816C176.917 272.296 175.882 271.546 175.029 270.611C174.156 269.649 173.472 268.53 173.014 267.314C172.531 266.056 172.289 264.699 172.289 263.243C172.289 261.733 172.537 260.336 173.034 259.052C173.507 257.807 174.219 256.667 175.13 255.696C176.021 254.749 177.089 253.986 178.273 253.451C179.467 252.909 180.764 252.637 182.161 252.637C183.532 252.637 184.767 252.909 185.869 253.451C186.969 253.992 187.912 254.806 188.609 255.814L188.73 253.232H193.928V271.703C193.928 273.319 193.667 274.788 193.142 276.112C192.645 277.396 191.883 278.56 190.906 279.529C189.922 280.493 188.749 281.244 187.461 281.733C186.131 282.25 184.66 282.508 183.049 282.508C181.464 282.508 180.039 282.262 178.777 281.772C177.555 281.308 176.433 280.614 175.472 279.727C174.539 278.863 173.786 277.824 173.256 276.668L178.656 275.358C179.12 276.107 179.764 276.729 180.53 277.166C181.295 277.602 182.161 277.821 183.129 277.821C184.177 277.821 185.083 277.589 185.848 277.126C186.618 276.658 187.239 275.983 187.642 275.179C188.071 274.345 188.287 273.371 188.287 272.26V270.552C187.557 271.508 186.611 272.277 185.526 272.795C184.411 273.339 183.182 273.61 181.839 273.61V273.61ZM183.209 268.684C184.202 268.684 185.084 268.439 185.848 267.95C186.619 267.455 187.25 266.771 187.682 265.964C188.139 265.129 188.367 264.183 188.367 263.123C188.367 262.063 188.139 261.117 187.682 260.284C187.25 259.476 186.619 258.793 185.848 258.298C185.083 257.807 184.204 257.561 183.209 257.561C182.216 257.561 181.336 257.807 180.57 258.298C179.8 258.793 179.168 259.476 178.737 260.284C178.279 261.117 178.051 262.064 178.051 263.123C178.051 264.183 178.28 265.129 178.737 265.964C179.194 266.797 179.804 267.459 180.57 267.95C181.336 268.44 182.215 268.684 183.209 268.684ZM198.442 274.207V253.231H203.64L203.841 256.409C204.379 255.298 205.104 254.443 206.017 253.847C206.931 253.251 208.005 252.954 209.242 252.954C209.617 252.954 209.993 252.987 210.369 253.053C210.745 253.12 211.081 253.206 211.377 253.311L210.772 258.793C210.479 258.688 210.175 258.614 209.866 258.574C209.552 258.534 209.235 258.514 208.918 258.514C207.36 258.514 206.165 258.985 205.333 259.925C204.499 260.865 204.083 262.195 204.083 263.917V274.205H198.442V274.207Z" fill="white"/>
<g filter="url(#filter0_d_42_102)">
<path d="M268.783 468.714C268.783 480.526 260.062 490.703 248.252 490.703H79.8361C68.025 490.703 57.7561 480.526 57.7561 468.714V53.8516C57.7561 42.0395 68.025 33.4039 79.8361 33.4039H99.3059C103.423 33.4039 104.943 32.9331 105.193 38.1513C105.322 40.8625 106.316 42.9689 107.91 44.7128C109.501 46.4243 111.693 47.8301 114.21 48.6189C115.919 49.1545 117.822 49.6387 119.635 49.6387H208.633C210.447 49.6387 212.349 49.0429 214.057 48.5085C216.577 47.7197 218.766 46.4031 220.359 44.724C221.952 43.0113 222.947 40.993 223.075 38.2829C223.324 33.0658 224.846 33.4039 228.963 33.4039H248.252C260.062 33.4039 268.783 42.0395 268.783 53.8516V468.714V468.714ZM150.945 35.4323H177.323C178.443 35.4323 179.352 36.1262 179.352 37.1226C179.352 38.1189 178.443 38.814 177.323 38.814H150.945C149.824 38.814 148.916 38.1189 148.916 37.1226C148.916 36.1262 149.824 35.4323 150.945 35.4323V35.4323ZM191.189 36.0147C191.189 36.7997 190.877 37.5526 190.322 38.1077C189.767 38.6628 189.014 38.9747 188.229 38.9747C187.443 38.9747 186.69 38.6628 186.135 38.1077C185.58 37.5526 185.268 36.7997 185.268 36.0147C185.268 35.2296 185.58 34.4767 186.135 33.9216C186.69 33.3665 187.443 33.0547 188.229 33.0547C189.014 33.0547 189.767 33.3665 190.322 33.9216C190.877 34.4767 191.189 35.2296 191.189 36.0147ZM281.634 130.815V55.1849C281.634 36.0571 266.13 20.5508 247.004 20.5508H78.7447C59.0182 20.5508 42.8761 36.6953 42.8761 56.4267V84.14C42.3379 84.14 41.8218 84.3537 41.4411 84.734C41.0605 85.1144 40.8465 85.6303 40.8462 86.1684V100.375C40.8462 100.913 41.06 101.429 41.4407 101.81C41.8213 102.191 42.3376 102.405 42.8761 102.405V119.316C42.3376 119.317 41.8213 119.531 41.4407 119.911C41.06 120.292 40.8462 120.809 40.8462 121.347V151.788C40.8468 152.326 41.0609 152.842 41.4415 153.222C41.822 153.602 42.338 153.816 42.8761 153.817V163.964C42.338 163.964 41.822 164.178 41.4415 164.558C41.0609 164.939 40.8468 165.454 40.8462 165.992V196.435C40.8462 196.973 41.06 197.489 41.4407 197.87C41.8213 198.251 42.3376 198.465 42.8761 198.465V470.272C42.8761 490.065 59.0673 506.261 78.8574 506.261H247.004C266.05 506.261 281.634 490.675 281.634 471.626V186.962H282.309C282.576 186.962 282.84 186.91 283.086 186.808C283.333 186.706 283.557 186.557 283.745 186.368C283.934 186.18 284.084 185.956 284.186 185.71C284.288 185.463 284.34 185.199 284.34 184.933V132.845C284.34 131.724 283.432 130.815 282.309 130.815H281.634V130.815Z" fill="black"/>
</g>
<path d="M268.783 468.714C268.783 480.526 260.062 490.703 248.252 490.703H79.8361C68.025 490.703 57.7561 480.526 57.7561 468.714V53.8516C57.7561 42.0395 68.025 33.4039 79.8361 33.4039H99.3059C103.423 33.4039 104.943 32.9331 105.193 38.1513C105.322 40.8625 106.316 42.9689 107.91 44.7128C109.501 46.4243 111.693 47.8301 114.21 48.6189C115.919 49.1545 117.822 49.6387 119.635 49.6387H208.633C210.447 49.6387 212.349 49.0429 214.057 48.5085C216.577 47.7197 218.766 46.4031 220.359 44.724C221.952 43.0113 222.947 40.993 223.075 38.2829C223.324 33.0658 224.846 33.4039 228.963 33.4039H248.252C260.062 33.4039 268.783 42.0395 268.783 53.8516V468.714V468.714ZM150.945 35.4323H177.323C178.443 35.4323 179.352 36.1262 179.352 37.1226C179.352 38.1189 178.443 38.814 177.323 38.814H150.945C149.824 38.814 148.916 38.1189 148.916 37.1226C148.916 36.1262 149.824 35.4323 150.945 35.4323V35.4323ZM191.189 36.0147C191.189 36.7997 190.877 37.5526 190.322 38.1077C189.767 38.6628 189.014 38.9747 188.229 38.9747C187.443 38.9747 186.69 38.6628 186.135 38.1077C185.58 37.5526 185.268 36.7997 185.268 36.0147C185.268 35.2296 185.58 34.4767 186.135 33.9216C186.69 33.3665 187.443 33.0547 188.229 33.0547C189.014 33.0547 189.767 33.3665 190.322 33.9216C190.877 34.4767 191.189 35.2296 191.189 36.0147ZM281.634 130.815V55.1849C281.634 36.0571 266.13 20.5508 247.004 20.5508H78.7447C59.0182 20.5508 42.8761 36.6953 42.8761 56.4267V84.14C42.3379 84.14 41.8218 84.3537 41.4411 84.734C41.0605 85.1144 40.8465 85.6303 40.8462 86.1684V100.375C40.8462 100.913 41.06 101.429 41.4407 101.81C41.8213 102.191 42.3376 102.405 42.8761 102.405V119.316C42.3376 119.317 41.8213 119.531 41.4407 119.911C41.06 120.292 40.8462 120.809 40.8462 121.347V151.788C40.8468 152.326 41.0609 152.842 41.4415 153.222C41.822 153.602 42.338 153.816 42.8761 153.817V163.964C42.338 163.964 41.822 164.178 41.4415 164.558C41.0609 164.939 40.8468 165.454 40.8462 165.992V196.435C40.8462 196.973 41.06 197.489 41.4407 197.87C41.8213 198.251 42.3376 198.465 42.8761 198.465V470.272C42.8761 490.065 59.0673 506.261 78.8574 506.261H247.004C266.05 506.261 281.634 490.675 281.634 471.626V186.962H282.309C282.576 186.962 282.84 186.91 283.086 186.808C283.333 186.706 283.557 186.557 283.745 186.368C283.934 186.18 284.084 185.956 284.186 185.71C284.288 185.463 284.34 185.199 284.34 184.933V132.845C284.34 131.724 283.432 130.815 282.309 130.815H281.634V130.815Z" fill="#1D1D25"/>
<path fill-rule="evenodd" clip-rule="evenodd" d="M177.322 35.4323H150.945C149.823 35.4323 148.915 36.1285 148.915 37.1248C148.915 38.12 149.823 38.8151 150.946 38.8151H177.322C178.444 38.8151 179.353 38.12 179.353 37.1248C179.353 36.1285 178.444 35.4323 177.322 35.4323M188.23 33.0558C187.444 33.0561 186.692 33.3682 186.137 33.9235C185.582 34.4789 185.27 35.2319 185.27 36.0169C185.27 36.8019 185.583 37.5547 186.138 38.1096C186.694 38.6645 187.447 38.9761 188.232 38.9758C189.017 38.9755 189.77 38.6633 190.325 38.108C190.88 37.5527 191.192 36.7997 191.191 36.0147C191.191 35.2296 190.879 34.4769 190.323 33.922C189.768 33.3671 189.015 33.0555 188.23 33.0558" fill="black"/>
<path d="M535 96.183H356.449C342.89 96.183 331.898 107.173 331.898 120.729V543.585C331.898 557.142 342.89 568.131 356.449 568.131H535C548.559 568.131 559.551 557.142 559.551 543.585V120.729C559.551 107.173 548.559 96.183 535 96.183Z" fill="url(#paint1_linear_42_102)"/>
<path d="M526.446 102.877H364.261C350.702 102.877 339.71 113.867 339.71 127.423V540.596C339.71 554.153 350.702 565.142 364.261 565.142H526.446C540.005 565.142 550.997 554.153 550.997 540.596V127.423C550.997 113.867 540.005 102.877 526.446 102.877Z" fill="white"/>
<path d="M526.446 102.877H364.261C350.702 102.877 339.71 113.867 339.71 127.423V160.079C339.71 173.635 350.702 184.625 364.261 184.625H526.446C540.005 184.625 550.997 173.635 550.997 160.079V127.423C550.997 113.867 540.005 102.877 526.446 102.877Z" fill="url(#paint2_linear_42_102)"/>
<g filter="url(#filter1_d_42_102)">
<path d="M533.875 154.457H356.832C354.367 154.457 352.368 156.455 352.368 158.92V215.198C352.368 217.662 354.367 219.661 356.832 219.661H533.875C536.34 219.661 538.339 217.662 538.339 215.198V158.92C538.339 156.455 536.34 154.457 533.875 154.457Z" fill="black"/>
</g>
<path d="M533.875 154.457H356.832C354.367 154.457 352.368 156.455 352.368 158.92V215.198C352.368 217.662 354.367 219.661 356.832 219.661H533.875C536.34 219.661 538.339 217.662 538.339 215.198V158.92C538.339 156.455 536.34 154.457 533.875 154.457Z" fill="white"/>
<g filter="url(#filter2_d_42_102)">
<path d="M533.875 235.231H356.832C354.367 235.231 352.368 237.23 352.368 239.694V295.972C352.368 298.437 354.367 300.435 356.832 300.435H533.875C536.34 300.435 538.339 298.437 538.339 295.972V239.694C538.339 237.23 536.34 235.231 533.875 235.231Z" fill="black"/>
</g>
<path d="M533.875 235.231H356.832C354.367 235.231 352.368 237.23 352.368 239.694V295.972C352.368 298.437 354.367 300.435 356.832 300.435H533.875C536.34 300.435 538.339 298.437 538.339 295.972V239.694C538.339 237.23 536.34 235.231 533.875 235.231Z" fill="white"/>
<g filter="url(#filter3_d_42_102)">
<path d="M533.875 316.006H356.832C354.367 316.006 352.368 318.004 352.368 320.469V376.747C352.368 379.212 354.367 381.21 356.832 381.21H533.875C536.34 381.21 538.339 379.212 538.339 376.747V320.469C538.339 318.004 536.34 316.006 533.875 316.006Z" fill="black"/>
</g>
<path d="M533.875 316.006H356.832C354.367 316.006 352.368 318.004 352.368 320.469V376.747C352.368 379.212 354.367 381.21 356.832 381.21H533.875C536.34 381.21 538.339 379.212 538.339 376.747V320.469C538.339 318.004 536.34 316.006 533.875 316.006Z" fill="white"/>
<g filter="url(#filter4_d_42_102)">
<path d="M533.875 396.782H356.832C354.367 396.782 352.368 398.78 352.368 401.245V457.522C352.368 459.987 354.367 461.985 356.832 461.985H533.875C536.34 461.985 538.339 459.987 538.339 457.522V401.245C538.339 398.78 536.34 396.782 533.875 396.782Z" fill="black"/>
</g>
<path d="M533.875 396.782H356.832C354.367 396.782 352.368 398.78 352.368 401.245V457.522C352.368 459.987 354.367 461.985 356.832 461.985H533.875C536.34 461.985 538.339 459.987 538.339 457.522V401.245C538.339 398.78 536.34 396.782 533.875 396.782Z" fill="white"/>
<g filter="url(#filter5_d_42_102)">
<path d="M533.875 477.556H356.832C354.367 477.556 352.368 479.554 352.368 482.019V538.297C352.368 540.762 354.367 542.76 356.832 542.76H533.875C536.34 542.76 538.339 540.762 538.339 538.297V482.019C538.339 479.554 536.34 477.556 533.875 477.556Z" fill="black"/>
</g>
<path d="M533.875 477.556H356.832C354.367 477.556 352.368 479.554 352.368 482.019V538.297C352.368 540.762 354.367 542.76 356.832 542.76H533.875C536.34 542.76 538.339 540.762 538.339 538.297V482.019C538.339 479.554 536.34 477.556 533.875 477.556Z" fill="white"/>
<path d="M395.507 344.497V316.294H405.903C407.838 316.294 409.51 316.592 410.921 317.186C412.331 317.783 413.419 318.63 414.185 319.73C414.95 320.828 415.334 322.119 415.334 323.602C415.334 324.952 415.037 326.138 414.447 327.158C413.856 328.177 412.99 329.01 411.947 329.561C413.398 330.116 414.527 330.997 415.333 332.202C416.139 333.407 416.542 334.83 416.542 336.473C416.542 338.114 416.112 339.53 415.253 340.722C414.394 341.914 413.184 342.841 411.626 343.503C410.068 344.164 408.228 344.496 406.105 344.496H395.507V344.497ZM401.31 321.178V327.654H405.26C406.576 327.654 407.59 327.383 408.302 326.84C409.014 326.296 409.37 325.495 409.37 324.436C409.37 323.376 409.012 322.57 408.302 322.013C407.59 321.457 406.575 321.18 405.26 321.18H401.309L401.31 321.178ZM401.31 339.61H405.823C407.327 339.61 408.49 339.292 409.309 338.657C410.128 338.021 410.538 337.108 410.538 335.916C410.538 334.724 410.128 333.811 409.309 333.176C408.489 332.54 407.327 332.222 405.823 332.222H401.31V339.61ZM420.128 344.497V314.864H425.771V344.497H420.128ZM440.519 345.092C438.934 345.092 437.47 344.814 436.126 344.258C434.815 343.723 433.623 342.933 432.62 341.934C431.619 340.93 430.831 339.734 430.304 338.419C429.752 337.069 429.478 335.598 429.478 334.009C429.478 332.42 429.759 330.958 430.324 329.62C430.872 328.306 431.673 327.112 432.68 326.105C433.694 325.095 434.9 324.298 436.227 323.761C437.584 323.205 439.068 322.927 440.68 322.927C442.264 322.927 443.729 323.206 445.072 323.761C446.383 324.296 447.575 325.086 448.578 326.085C449.576 327.084 450.364 328.273 450.895 329.581C451.446 330.918 451.721 332.381 451.721 333.97C451.721 335.559 451.439 337.028 450.875 338.378C450.33 339.701 449.529 340.902 448.518 341.914C447.504 342.924 446.298 343.721 444.971 344.257C443.614 344.814 442.13 345.092 440.519 345.092V345.092ZM440.599 340.087C441.62 340.087 442.533 339.822 443.34 339.292C444.146 338.763 444.783 338.041 445.254 337.128C445.724 336.214 445.959 335.175 445.959 334.009C445.959 332.844 445.724 331.805 445.254 330.891C444.783 329.978 444.146 329.256 443.34 328.726C442.533 328.196 441.62 327.932 440.599 327.932C439.578 327.932 438.665 328.196 437.86 328.726C437.053 329.256 436.416 329.978 435.945 330.891C435.476 331.806 435.239 332.843 435.239 334.009C435.239 335.175 435.475 336.214 435.945 337.128C436.416 338.041 437.053 338.763 437.86 339.292C438.665 339.822 439.578 340.087 440.599 340.087ZM464.172 343.9C462.874 343.909 461.589 343.639 460.405 343.106C459.251 342.586 458.215 341.836 457.363 340.901C456.489 339.939 455.806 338.82 455.347 337.604C454.864 336.347 454.622 334.989 454.622 333.533C454.622 332.023 454.871 330.626 455.368 329.342C455.84 328.097 456.552 326.957 457.463 325.986C458.354 325.039 459.422 324.276 460.607 323.741C461.801 323.199 463.098 322.927 464.495 322.927C465.865 322.927 467.101 323.199 468.202 323.741C469.302 324.283 470.246 325.096 470.943 326.104L471.063 323.523H476.261V341.993C476.261 343.609 476 345.078 475.476 346.403C474.979 347.686 474.217 348.85 473.239 349.819C472.255 350.783 471.082 351.534 469.794 352.024C468.464 352.54 466.993 352.798 465.382 352.798C463.797 352.798 462.372 352.552 461.11 352.063C459.888 351.598 458.767 350.904 457.806 350.018C456.873 349.154 456.12 348.114 455.59 346.958L460.99 345.648C461.454 346.398 462.098 347.019 462.863 347.456C463.629 347.892 464.495 348.111 465.462 348.111C466.51 348.111 467.416 347.879 468.182 347.416C468.951 346.948 469.573 346.274 469.975 345.469C470.405 344.635 470.62 343.661 470.62 342.55V340.842C469.891 341.798 468.945 342.567 467.859 343.086C466.745 343.629 465.516 343.9 464.172 343.9V343.9ZM465.543 338.974C466.536 338.974 467.418 338.729 468.182 338.24C468.952 337.745 469.583 337.061 470.015 336.254C470.473 335.419 470.701 334.473 470.701 333.413C470.701 332.354 470.473 331.407 470.015 330.574C469.583 329.767 468.952 329.083 468.182 328.588C467.416 328.097 466.537 327.852 465.543 327.852C464.55 327.852 463.669 328.097 462.904 328.588C462.133 329.083 461.502 329.767 461.07 330.574C460.612 331.407 460.385 332.355 460.385 333.413C460.385 334.473 460.614 335.419 461.07 336.254C461.528 337.087 462.138 337.749 462.904 338.24C463.669 338.73 464.548 338.974 465.543 338.974ZM480.775 344.497V323.521H485.973L486.174 326.699C486.712 325.588 487.438 324.733 488.35 324.137C489.264 323.542 490.339 323.244 491.575 323.244C491.95 323.244 492.326 323.277 492.703 323.343C493.079 323.41 493.414 323.496 493.71 323.601L493.105 329.083C492.812 328.978 492.508 328.905 492.199 328.865C491.885 328.824 491.569 328.804 491.252 328.804C489.694 328.804 488.499 329.275 487.666 330.215C486.833 331.155 486.416 332.485 486.416 334.207V344.495H480.775V344.497Z" fill="white"/>
<g filter="url(#filter6_d_42_102)">
<path d="M551.116 539.004C551.116 550.816 542.395 560.993 530.585 560.993H362.17C350.358 560.993 340.09 550.816 340.09 539.004V124.142C340.09 112.33 350.358 103.694 362.17 103.694H381.639C385.756 103.694 387.276 103.223 387.526 108.441C387.655 111.153 388.65 113.259 390.243 115.003C391.835 116.714 394.026 118.12 396.544 118.909C398.252 119.445 400.155 119.929 401.969 119.929H490.966C492.781 119.929 494.682 119.333 496.391 118.799C498.91 118.01 501.1 116.693 502.692 115.014C504.286 113.301 505.28 111.283 505.409 108.573C505.657 103.356 507.18 103.694 511.296 103.694H530.585C542.395 103.694 551.116 112.33 551.116 124.142V539.004V539.004ZM433.279 105.722H459.656C460.776 105.722 461.686 106.416 461.686 107.413C461.686 108.409 460.776 109.104 459.656 109.104H433.279C432.157 109.104 431.25 108.409 431.25 107.413C431.25 106.416 432.157 105.722 433.279 105.722V105.722ZM473.523 106.305C473.523 107.09 473.211 107.843 472.656 108.398C472.1 108.953 471.347 109.265 470.562 109.265C469.777 109.265 469.024 108.953 468.469 108.398C467.913 107.843 467.602 107.09 467.602 106.305C467.602 105.52 467.913 104.767 468.469 104.212C469.024 103.657 469.777 103.345 470.562 103.345C471.347 103.345 472.1 103.657 472.656 104.212C473.211 104.767 473.523 105.52 473.523 106.305ZM563.968 201.105V125.475C563.968 106.347 548.464 90.841 529.338 90.841H361.078C341.352 90.841 325.21 106.985 325.21 126.717V154.43C324.671 154.43 324.155 154.644 323.775 155.024C323.394 155.405 323.18 155.92 323.18 156.459V170.665C323.18 171.203 323.394 171.72 323.774 172.1C324.155 172.481 324.671 172.695 325.21 172.696V189.606C324.671 189.607 324.155 189.821 323.774 190.202C323.394 190.582 323.18 191.099 323.18 191.637V222.078C323.18 222.616 323.394 223.132 323.775 223.512C324.156 223.893 324.672 224.106 325.21 224.107V234.254C324.672 234.254 324.156 234.468 323.775 234.848C323.394 235.229 323.18 235.745 323.18 236.282V266.725C323.18 267.263 323.394 267.779 323.774 268.16C324.155 268.541 324.671 268.755 325.21 268.755V540.562C325.21 560.355 341.401 576.552 361.191 576.552H529.338C548.383 576.552 563.968 560.965 563.968 541.916V257.252H564.643C564.909 257.253 565.174 257.2 565.42 257.098C565.666 256.996 565.89 256.847 566.079 256.658C566.267 256.47 566.417 256.246 566.519 256C566.621 255.753 566.674 255.489 566.674 255.223V203.136C566.674 202.014 565.765 201.105 564.643 201.105H563.968V201.105Z" fill="black"/>
</g>
<path d="M551.116 539.004C551.116 550.816 542.395 560.993 530.585 560.993H362.17C350.358 560.993 340.09 550.816 340.09 539.004V124.142C340.09 112.33 350.358 103.694 362.17 103.694H381.639C385.756 103.694 387.276 103.223 387.526 108.441C387.655 111.153 388.65 113.259 390.243 115.003C391.835 116.714 394.026 118.12 396.544 118.909C398.252 119.445 400.155 119.929 401.969 119.929H490.966C492.781 119.929 494.682 119.333 496.391 118.799C498.91 118.01 501.1 116.693 502.692 115.014C504.286 113.301 505.28 111.283 505.409 108.573C505.657 103.356 507.18 103.694 511.296 103.694H530.585C542.395 103.694 551.116 112.33 551.116 124.142V539.004V539.004ZM433.279 105.722H459.656C460.776 105.722 461.686 106.416 461.686 107.413C461.686 108.409 460.776 109.104 459.656 109.104H433.279C432.157 109.104 431.25 108.409 431.25 107.413C431.25 106.416 432.157 105.722 433.279 105.722V105.722ZM473.523 106.305C473.523 107.09 473.211 107.843 472.656 108.398C472.1 108.953 471.347 109.265 470.562 109.265C469.777 109.265 469.024 108.953 468.469 108.398C467.913 107.843 467.602 107.09 467.602 106.305C467.602 105.52 467.913 104.767 468.469 104.212C469.024 103.657 469.777 103.345 470.562 103.345C471.347 103.345 472.1 103.657 472.656 104.212C473.211 104.767 473.523 105.52 473.523 106.305ZM563.968 201.105V125.475C563.968 106.347 548.464 90.841 529.338 90.841H361.078C341.352 90.841 325.21 106.985 325.21 126.717V154.43C324.671 154.43 324.155 154.644 323.775 155.024C323.394 155.405 323.18 155.92 323.18 156.459V170.665C323.18 171.203 323.394 171.72 323.774 172.1C324.155 172.481 324.671 172.695 325.21 172.696V189.606C324.671 189.607 324.155 189.821 323.774 190.202C323.394 190.582 323.18 191.099 323.18 191.637V222.078C323.18 222.616 323.394 223.132 323.775 223.512C324.156 223.893 324.672 224.106 325.21 224.107V234.254C324.672 234.254 324.156 234.468 323.775 234.848C323.394 235.229 323.18 235.745 323.18 236.282V266.725C323.18 267.263 323.394 267.779 323.774 268.16C324.155 268.541 324.671 268.755 325.21 268.755V540.562C325.21 560.355 341.401 576.552 361.191 576.552H529.338C548.383 576.552 563.968 560.965 563.968 541.916V257.252H564.643C564.909 257.253 565.174 257.2 565.42 257.098C565.666 256.996 565.89 256.847 566.079 256.658C566.267 256.47 566.417 256.246 566.519 256C566.621 255.753 566.674 255.489 566.674 255.223V203.136C566.674 202.014 565.765 201.105 564.643 201.105H563.968V201.105Z" fill="#1D1D25"/>
<path fill-rule="evenodd" clip-rule="evenodd" d="M459.656 105.722H433.278C432.157 105.722 431.249 106.419 431.249 107.415C431.249 108.41 432.157 109.105 433.28 109.105H459.656C460.777 109.105 461.687 108.41 461.687 107.415C461.687 106.419 460.777 105.722 459.656 105.722M470.563 103.346C469.778 103.346 469.025 103.658 468.47 104.214C467.915 104.769 467.603 105.522 467.604 106.307C467.604 107.092 467.916 107.845 468.472 108.4C469.027 108.955 469.78 109.266 470.565 109.266C471.351 109.266 472.104 108.954 472.659 108.398C473.214 107.843 473.525 107.09 473.525 106.305C473.525 105.52 473.212 104.767 472.657 104.212C472.102 103.657 471.348 103.346 470.563 103.346" fill="black"/>
<defs>
<filter id="filter0_d_42_102" x="0.846191" y="0.550842" width="323.494" height="565.711" filterUnits="userSpaceOnUse" color-interpolation-filters="sRGB">
<feFlood flood-opacity="0" result="BackgroundImageFix"/>
<feColorMatrix in="SourceAlpha" type="matrix" values="0 0 0 0 0 0 0 0 0 0 0 0 0 0 0 0 0 0 127 0" result="hardAlpha"/>
<feOffset dy="20"/>
<feGaussianBlur stdDeviation="20"/>
<feColorMatrix type="matrix" values="0 0 0 0 0.421822 0 0 0 0 0.554338 0 0 0 0 0.89371 0 0 0 0.243444 0"/>
<feBlend mode="normal" in2="BackgroundImageFix" result="effect1_dropShadow_42_102"/>
<feBlend mode="normal" in="SourceGraphic" in2="effect1_dropShadow_42_102" result="shape"/>
</filter>
<filter id="filter1_d_42_102" x="332.368" y="144.457" width="225.971" height="105.204" filterUnits="userSpaceOnUse" color-interpolation-filters="sRGB">
<feFlood flood-opacity="0" result="BackgroundImageFix"/>
<feColorMatrix in="SourceAlpha" type="matrix" values="0 0 0 0 0 0 0 0 0 0 0 0 0 0 0 0 0 0 127 0" result="hardAlpha"/>
<feOffset dy="10"/>
<feGaussianBlur stdDeviation="10"/>
<feColorMatrix type="matrix" values="0 0 0 0 0.421822 0 0 0 0 0.554338 0 0 0 0 0.89371 0 0 0 0.243444 0"/>
<feBlend mode="normal" in2="BackgroundImageFix" result="effect1_dropShadow_42_102"/>
<feBlend mode="normal" in="SourceGraphic" in2="effect1_dropShadow_42_102" result="shape"/>
</filter>
<filter id="filter2_d_42_102" x="332.368" y="225.231" width="225.971" height="105.204" filterUnits="userSpaceOnUse" color-interpolation-filters="sRGB">
<feFlood flood-opacity="0" result="BackgroundImageFix"/>
<feColorMatrix in="SourceAlpha" type="matrix" values="0 0 0 0 0 0 0 0 0 0 0 0 0 0 0 0 0 0 127 0" result="hardAlpha"/>
<feOffset dy="10"/>
<feGaussianBlur stdDeviation="10"/>
<feColorMatrix type="matrix" values="0 0 0 0 0.421822 0 0 0 0 0.554338 0 0 0 0 0.89371 0 0 0 0.243444 0"/>
<feBlend mode="normal" in2="BackgroundImageFix" result="effect1_dropShadow_42_102"/>
<feBlend mode="normal" in="SourceGraphic" in2="effect1_dropShadow_42_102" result="shape"/>
</filter>
<filter id="filter3_d_42_102" x="332.368" y="306.006" width="225.971" height="105.204" filterUnits="userSpaceOnUse" color-interpolation-filters="sRGB">
<feFlood flood-opacity="0" result="BackgroundImageFix"/>
<feColorMatrix in="SourceAlpha" type="matrix" values="0 0 0 0 0 0 0 0 0 0 0 0 0 0 0 0 0 0 127 0" result="hardAlpha"/>
<feOffset dy="10"/>
<feGaussianBlur stdDeviation="10"/>
<feColorMatrix type="matrix" values="0 0 0 0 0.421822 0 0 0 0 0.554338 0 0 0 0 0.89371 0 0 0 0.243444 0"/>
<feBlend mode="normal" in2="BackgroundImageFix" result="effect1_dropShadow_42_102"/>
<feBlend mode="normal" in="SourceGraphic" in2="effect1_dropShadow_42_102" result="shape"/>
</filter>
<filter id="filter4_d_42_102" x="332.368" y="386.782" width="225.971" height="105.204" filterUnits="userSpaceOnUse" color-interpolation-filters="sRGB">
<feFlood flood-opacity="0" result="BackgroundImageFix"/>
<feColorMatrix in="SourceAlpha" type="matrix" values="0 0 0 0 0 0 0 0 0 0 0 0 0 0 0 0 0 0 127 0" result="hardAlpha"/>
<feOffset dy="10"/>
<feGaussianBlur stdDeviation="10"/>
<feColorMatrix type="matrix" values="0 0 0 0 0.421822 0 0 0 0 0.554338 0 0 0 0 0.89371 0 0 0 0.243444 0"/>
<feBlend mode="normal" in2="BackgroundImageFix" result="effect1_dropShadow_42_102"/>
<feBlend mode="normal" in="SourceGraphic" in2="effect1_dropShadow_42_102" result="shape"/>
</filter>
<filter id="filter5_d_42_102" x="332.368" y="467.556" width="225.971" height="105.204" filterUnits="userSpaceOnUse" color-interpolation-filters="sRGB">
<feFlood flood-opacity="0" result="BackgroundImageFix"/>
<feColorMatrix in="SourceAlpha" type="matrix" values="0 0 0 0 0 0 0 0 0 0 0 0 0 0 0 0 0 0 127 0" result="hardAlpha"/>
<feOffset dy="10"/>
<feGaussianBlur stdDeviation="10"/>
<feColorMatrix type="matrix" values="0 0 0 0 0.421822 0 0 0 0 0.554338 0 0 0 0 0.89371 0 0 0 0.243444 0"/>
<feBlend mode="normal" in2="BackgroundImageFix" result="effect1_dropShadow_42_102"/>
<feBlend mode="normal" in="SourceGraphic" in2="effect1_dropShadow_42_102" result="shape"/>
</filter>
<filter id="filter6_d_42_102" x="283.18" y="70.841" width="323.494" height="565.711" filterUnits="userSpaceOnUse" color-interpolation-filters="sRGB">
<feFlood flood-opacity="0" result="BackgroundImageFix"/>
<feColorMatrix in="SourceAlpha" type="matrix" values="0 0 0 0 0 0 0 0 0 0 0 0 0 0 0 0 0 0 127 0" result="hardAlpha"/>
<feOffset dy="20"/>
<feGaussianBlur stdDeviation="20"/>
<feColorMatrix type="matrix" values="0 0 0 0 0.421822 0 0 0 0 0.554338 0 0 0 0 0.89371 0 0 0 0.243444 0"/>
<feBlend mode="normal" in2="BackgroundImageFix" result="effect1_dropShadow_42_102"/>
<feBlend mode="normal" in="SourceGraphic" in2="effect1_dropShadow_42_102" result="shape"/>
</filter>
<linearGradient id="paint0_linear_42_102" x1="136.917" y1="25.8929" x2="331.537" y2="429.532" gradientUnits="userSpaceOnUse">
<stop stop-color="#FF8F71"/>
<stop offset="1" stop-color="#FF3E55"/>
</linearGradient>
<linearGradient id="paint1_linear_42_102" x1="419.251" y1="96.183" x2="613.871" y2="499.822" gradientUnits="userSpaceOnUse">
<stop stop-color="#FF8F71"/>
<stop offset="1" stop-color="#FF3E55"/>
</linearGradient>
<linearGradient id="paint2_linear_42_102" x1="339.71" y1="137.63" x2="527.587" y2="210.352" gradientUnits="userSpaceOnUse">
<stop stop-color="#FF8F71"/>
<stop offset="1" stop-color="#FF3E55"/>
</linearGradient>
</defs>
</svg>
